<?xml version="1.0" encoding="UTF-8"?>
<svg width="2500px" height="2500px" viewBox="0 0 2500 2500" version="1.1" xmlns="http://www.w3.org/2000/svg" xmlns:xlink="http://www.w3.org/1999/xlink">
    <!-- Generator: Sketch 51.2 (57519) - http://www.bohemiancoding.com/sketch -->
    <title>Group</title>
    <desc>Created with Sketch.</desc>
    <defs></defs>
    <g id="Page-1" stroke="none" stroke-width="1" fill="none" fill-rule="evenodd">
        <g id="Group" fill-rule="nonzero">
            <g id="gatsby" fill="#744C9E">
                <path d="M1250,0 C559.6,0 0,559.6 0,1250 C0,1940.4 559.6,2500 1250,2500 C1940.4,2500 2500,1940.4 2500,1250 C2500,559.6 1940.4,0 1250,0 Z M1469.7,2206.9 L293.1,1030.3 C392.9,594 783.4,268.4 1250,268.4 C1576.1,268.4 1865.1,427.5 2043.6,672.3 L1907.7,792.2 C1762.9,584.6 1522.3,448.7 1250,448.7 C903.3,448.7 608,668.9 496.4,977.1 L1522.9,2003.5 C1772.2,1913.2 1963.9,1702.8 2028.1,1442.2 L1602.7,1442.2 L1602.7,1250 L2231.7,1250 C2231.6,1716.6 1906,2107.1 1469.7,2206.9 Z" id="Shape"></path>
            </g>
            <g id="aws-logo" transform="translate(746.423232, 1844.645156) rotate(-99.000000) translate(-746.423232, -1844.645156) translate(260.423232, 1459.645156)" fill="#B9A5CE">
                <path d="M283.421295,490.297183 L194.426967,528.751793 L276.846328,564.207641 L372.415623,528.751793 L283.421295,490.297183 Z M149.623388,538.365446 L146.641426,711.411193 L276.845434,769.093109 L276.845434,589.434268 L149.623388,538.365446 Z M417.218308,538.365446 L299.552299,583.434048 L299.552299,752.866363 L417.218308,704.7981 L417.218308,538.365446 Z M557.590289,6.38522251e-15 L467.984024,38.4555091 L551.014428,73.9104587 L646.583723,38.4555091 L557.590289,0 Z M433.350205,51.0876941 L433.350205,224.133441 L544.440354,256.58873 L548.033359,99.1550586 L433.350205,51.0876941 Z M681.832159,60.7004481 L576.705041,105.769949 L576.705041,275.816934 L681.832159,227.748671 L681.832159,60.7004481 Z M136.778975,243.553056 L47.7846476,282.007666 L130.204008,317.463514 L225.773303,282.007666 L136.778975,243.553056 Z M2.98196212,291.621319 L0,464.667965 L130.204008,522.34988 L130.204008,342.689243 L2.98196212,291.621319 Z M270.576882,291.621319 L152.911766,336.689921 L152.911766,506.121337 L270.576882,458.053074 L270.576882,291.621319 Z M423.487754,237.169116 L334.493426,275.623726 L416.912787,311.079575 L512.482082,275.623726 L423.487754,237.169116 Z M289.689847,285.238278 L286.707885,458.284025 L416.911893,515.965941 L416.911893,336.325073 L289.689847,285.238278 Z M557.284767,285.238278 L439.619651,330.30688 L439.619651,499.738296 L557.284767,451.670033 L557.284767,285.238278 Z M837.628513,7.10542736e-15 L748.635078,38.4546105 L831.054439,73.9095601 L926.622841,38.4546105 L837.628513,7.10542736e-15 Z M703.830606,48.0682631 L700.849538,221.11401 L831.053545,278.795926 L831.053545,99.1550586 L703.830606,48.0682631 Z M971.425526,48.0682631 L853.76041,93.1368653 L853.76041,262.568282 L971.425526,214.500019 L971.425526,48.0682631 Z" id="Shape"></path>
            </g>
        </g>
    </g>
</svg>